<svg xmlns="http://www.w3.org/2000/svg" xmlns:xlink="http://www.w3.org/1999/xlink" version="1.1" x="0px" y="0px" viewBox="0 0 100 125" enable-background="new 0 0 100 100" xml:space="preserve"><path d="M80.582,57.413L66.205,43.035c-0.977-0.977-2.559-0.976-3.535,0c-0.977,0.977-0.977,2.56,0,3.536l14.377,14.378  c4.289,4.289,4.289,11.268,0,15.557c-2.078,2.078-4.84,3.222-7.778,3.222c-2.938,0-5.7-1.144-7.778-3.222L47.113,62.127  c-0.977-0.977-2.559-0.976-3.535,0c-0.977,0.977-0.977,2.56,0,3.536L57.955,80.04c3.022,3.022,7.04,4.687,11.313,4.687  c4.274,0,8.292-1.664,11.313-4.687C86.82,73.802,86.82,63.651,80.582,57.413z M22.953,37.968c-4.289-4.289-4.289-11.268,0-15.557  c2.078-2.078,4.84-3.222,7.778-3.222c2.938,0,5.7,1.144,7.778,3.222l14.377,14.378c0.977,0.977,2.559,0.976,3.535,0  c0.977-0.977,0.977-2.56,0-3.536L42.045,18.876c-3.022-3.022-7.04-4.687-11.313-4.687c-4.274,0-8.292,1.664-11.313,4.687  c-6.238,6.238-6.238,16.389,0,22.627l14.377,14.378c0.488,0.488,1.128,0.732,1.768,0.732s1.279-0.244,1.768-0.732  c0.977-0.977,0.977-2.56,0-3.536L22.953,37.968z M32.676,32.134c-0.977,0.976-0.977,2.559,0,3.535l31.113,31.113  c0.488,0.488,1.128,0.732,1.768,0.732s1.279-0.244,1.768-0.732c0.977-0.976,0.977-2.559,0-3.535L36.211,32.134  C35.234,31.157,33.652,31.157,32.676,32.134z"/><text x="0" y="115" fill="#000000" font-size="5px" font-weight="bold" font-family="'Helvetica Neue', Helvetica, Arial-Unicode, Arial, Sans-serif">Created by myladkings</text><text x="0" y="120" fill="#000000" font-size="5px" font-weight="bold" font-family="'Helvetica Neue', Helvetica, Arial-Unicode, Arial, Sans-serif">from the Noun Project</text></svg>