<svg xmlns="http://www.w3.org/2000/svg" xmlns:xlink="http://www.w3.org/1999/xlink" version="1.1" x="0px" y="0px" viewBox="0 0 100 125" style="enable-background:new 0 0 100 100;" xml:space="preserve"><g><path d="M33.3,53.9c0,1.1,0.9,2,2,2h3c2.4,6.5,8.6,10.8,15.6,10.8c5.9,0,9.4-2.8,12.2-5.5c0.4-0.4,0.6-0.9,0.6-1.4   c0-0.5-0.2-1-0.6-1.4c-0.4-0.4-0.9-0.6-1.4-0.6c0,0,0,0,0,0c-0.5,0-1,0.2-1.4,0.6c-2.7,2.7-5.1,4.3-9.3,4.3   c-4.8,0-9.1-2.6-11.3-6.8h12.2c1.1,0,2-0.9,2-2s-0.9-2-2-2H41.3c-0.1-0.6-0.1-1.3-0.1-1.9c0-0.3,0-0.6,0-1h13.6c1.1,0,2-0.9,2-2   s-0.9-2-2-2H42.2c2-4.6,6.6-7.8,11.7-7.8c4.2,0,6.6,1.6,9.3,4.3c0.4,0.4,0.9,0.6,1.4,0.6c0,0,0,0,0,0c0.5,0,1-0.2,1.4-0.6   c0.4-0.4,0.6-0.9,0.6-1.4s-0.2-1-0.6-1.4c-2.7-2.7-6.3-5.5-12.1-5.5c-7.3,0-13.8,4.8-15.9,11.8h-2.7c-1.1,0-2,0.9-2,2s0.9,2,2,2h2   c0,0.3,0,0.6,0,1c0,0.6,0,1.3,0.1,1.9h-2C34.2,51.9,33.3,52.8,33.3,53.9z"/></g><text x="0" y="115" fill="#000000" font-size="5px" font-weight="bold" font-family="'Helvetica Neue', Helvetica, Arial-Unicode, Arial, Sans-serif">Created by Agni</text><text x="0" y="120" fill="#000000" font-size="5px" font-weight="bold" font-family="'Helvetica Neue', Helvetica, Arial-Unicode, Arial, Sans-serif">from the Noun Project</text></svg>