<svg xmlns="http://www.w3.org/2000/svg" data-name="Layer 1" viewBox="0 0 100 125" x="0px" y="0px"><title>Artboard 2</title><path d="M99.82,30.92A23.54,23.54,0,0,1,79.7,54.2a21.14,21.14,0,0,0,.58,9.31,1.89,1.89,0,0,1-2.66,2.22,32.37,32.37,0,0,1-9.56-7.15c0-.35,0-.69,0-1A29.42,29.42,0,0,0,38.7,28.15h-.82A23.55,23.55,0,0,1,61.26,7.37h15A23.55,23.55,0,0,1,99.82,30.92ZM.18,57.57h0A23.58,23.58,0,0,1,23.77,34h15A23.58,23.58,0,0,1,62.37,57.57h0A23.58,23.58,0,0,1,38.79,81.15H34.85c-3,5.65-8.52,9.29-12.44,11.27a1.89,1.89,0,0,1-2.66-2.23,21.2,21.2,0,0,0,.6-9.3A23.59,23.59,0,0,1,.18,57.57Zm37.16,0a3.43,3.43,0,1,0,3.43-3.43A3.44,3.44,0,0,0,37.34,57.57Zm-9.5,0a3.43,3.43,0,1,0,3.43-3.43A3.44,3.44,0,0,0,27.85,57.57Zm-9.5,0a3.43,3.43,0,1,0,3.43-3.43A3.44,3.44,0,0,0,18.35,57.57Z"/><text x="0" y="115" fill="#000000" font-size="5px" font-weight="bold" font-family="'Helvetica Neue', Helvetica, Arial-Unicode, Arial, Sans-serif">Created by Gregor Cresnar</text><text x="0" y="120" fill="#000000" font-size="5px" font-weight="bold" font-family="'Helvetica Neue', Helvetica, Arial-Unicode, Arial, Sans-serif">from the Noun Project</text></svg>