<svg xmlns="http://www.w3.org/2000/svg" xmlns:xlink="http://www.w3.org/1999/xlink" version="1.1" x="0px" y="0px" viewBox="0 0 90 112.5" enable-background="new 0 0 90 90" xml:space="preserve"><g><path fill="#000000" d="M45.146,75.571c-16.016,0-29.045-13.03-29.045-29.047c0-16.016,13.029-29.045,29.045-29.045   c16.015,0,29.044,13.03,29.044,29.045C74.189,62.541,61.16,75.571,45.146,75.571z M45.146,21.095   c-14.021,0-25.429,11.408-25.429,25.429c0,14.022,11.407,25.43,25.429,25.43c14.021,0,25.427-11.407,25.427-25.43   C70.572,32.503,59.166,21.095,45.146,21.095z"/><path fill="#000000" d="M58.062,34.704c-0.834-0.551-1.955-0.321-2.505,0.513L42.893,54.402l-6.599-6.091   c-0.734-0.676-1.877-0.63-2.555,0.103c-0.678,0.734-0.632,1.878,0.102,2.556l7.792,7.192c0.348,0.32,0.788,0.479,1.226,0.479   c0.117,0,0.234-0.013,0.35-0.035c0.082,0.011,0.163,0.035,0.245,0.035c0.587,0,1.163-0.286,1.51-0.812l13.61-20.62   C59.125,36.376,58.896,35.254,58.062,34.704z"/></g><text x="0" y="105" fill="#000000" font-size="5px" font-weight="bold" font-family="'Helvetica Neue', Helvetica, Arial-Unicode, Arial, Sans-serif">Created by Marvin Wilhelm</text><text x="0" y="110" fill="#000000" font-size="5px" font-weight="bold" font-family="'Helvetica Neue', Helvetica, Arial-Unicode, Arial, Sans-serif">from the Noun Project</text></svg>