<svg xmlns="http://www.w3.org/2000/svg" xmlns:xlink="http://www.w3.org/1999/xlink" viewBox="0 0 100 125" version="1.1" x="0px" y="0px"><title>Artboard 1 Copy 76</title><desc>Created with Sketch.</desc><g stroke="none" stroke-width="1" fill="none" fill-rule="evenodd"><g fill="#000000"><path d="M22.2834912,50.9996121 L47.5701794,76.2863003 C47.9658455,76.6819665 47.9669087,77.3161946 47.5763844,77.7067189 C47.1831374,78.0999658 46.5499171,78.0944651 46.1559659,77.7005139 L19.2983181,50.8428662 C19.0671623,50.6117103 18.9706893,50.2991304 19.0082979,50.0012907 C18.9694976,49.7018488 19.066867,49.3878091 19.2983181,49.156358 L46.1559659,22.2987103 C46.551632,21.9030441 47.1858601,21.901981 47.5763844,22.2925053 C47.9696313,22.6857523 47.9641306,23.3189726 47.5701794,23.7129238 L22.2834912,48.9996121 L78.8779251,48.9996121 C79.425434,48.9996121 79.8692776,49.4434769 79.8692776,49.9996121 C79.8692776,50.5518968 79.4208194,50.9996121 78.8779251,50.9996121 L22.2834912,50.9996121 Z" transform="translate(49.434639, 49.999806) rotate(-180.000000) translate(-49.434639, -49.999806) "/></g></g><text x="0" y="115" fill="#000000" font-size="5px" font-weight="bold" font-family="'Helvetica Neue', Helvetica, Arial-Unicode, Arial, Sans-serif">Created by Nikita Tcherednikov</text><text x="0" y="120" fill="#000000" font-size="5px" font-weight="bold" font-family="'Helvetica Neue', Helvetica, Arial-Unicode, Arial, Sans-serif">from the Noun Project</text></svg>