<svg xmlns="http://www.w3.org/2000/svg" data-name="Layer 1" viewBox="0 0 100 125" x="0px" y="0px"><title>79 all</title><path d="M40,35.81h2a9.49,9.49,0,1,1,19,0v7.46l-.34,0H42.3a6.39,6.39,0,0,0-6.38,6.38V61.06a6.39,6.39,0,0,0,6.38,6.38H60.58A6.39,6.39,0,0,0,67,61.06V49.63a6.39,6.39,0,0,0-5.12-6.25h1.09V35.81a11.49,11.49,0,1,0-23,0ZM65,49.63V61.06a4.38,4.38,0,0,1-4.38,4.38H42.3a4.38,4.38,0,0,1-4.38-4.38V49.63a4.38,4.38,0,0,1,4.38-4.38H60.58A4.38,4.38,0,0,1,65,49.63Z"/><circle cx="51.44" cy="55.5" r="4"/><path d="M50,2.3a9.12,9.12,0,0,0-5.2,1.63A157.28,157.28,0,0,1,9.34,22.2c.11,23.12,4.46,40.34,13.29,52.67C29.8,84.9,39,90.74,47.94,96.39L50,97.7l2.06-1.31C61,90.74,70.2,84.9,77.38,74.87,86.21,62.54,90.56,45.3,90.66,22.2A157.24,157.24,0,0,1,55.2,3.93,9.12,9.12,0,0,0,50,2.3ZM75.75,73.71c-7,9.71-16,15.45-24.76,21l-1,.63-1-.63c-8.76-5.55-17.81-11.28-24.76-21C15.85,62,11.62,45.56,11.35,23.59a158.07,158.07,0,0,0,34.59-18,7.11,7.11,0,0,1,8.12,0,158.11,158.11,0,0,0,34.59,18C88.38,45.56,84.16,62,75.75,73.71Z"/><text x="0" y="115" fill="#000000" font-size="5px" font-weight="bold" font-family="'Helvetica Neue', Helvetica, Arial-Unicode, Arial, Sans-serif">Created by Anil</text><text x="0" y="120" fill="#000000" font-size="5px" font-weight="bold" font-family="'Helvetica Neue', Helvetica, Arial-Unicode, Arial, Sans-serif">from the Noun Project</text></svg>