<svg xmlns:dc="http://purl.org/dc/elements/1.1/" xmlns:cc="http://creativecommons.org/ns#" xmlns:rdf="http://www.w3.org/1999/02/22-rdf-syntax-ns#" xmlns:svg="http://www.w3.org/2000/svg" xmlns="http://www.w3.org/2000/svg" xmlns:sodipodi="http://sodipodi.sourceforge.net/DTD/sodipodi-0.dtd" xmlns:inkscape="http://www.inkscape.org/namespaces/inkscape" version="1.1" x="0px" y="0px" viewBox="0 0 100 125"><g transform="translate(0,-952.36218)"><path style="text-indent:0;text-transform:none;direction:ltr;block-progression:tb;baseline-shift:baseline;color:#000000;enable-background:accumulate;" d="m 49.937504,957.36714 c -0.4123,0.01 -0.7943,0.091 -1.1563,0.25 l -36.999996,16.34381 c -1.0556,0.4695 -1.7845004,1.5947 -1.7812,2.75 0,22.79728 5.0363,37.78185 12.5,48.34365 7.4637,10.5617 17.173496,16.5675 25.937496,21.875 0.9353,0.5706 2.1897,0.5706 3.125,0 8.764,-5.3075 18.4728,-11.3133 25.9375,-21.875 7.4647,-10.5618 12.5,-25.54617 12.5,-48.34365 0,-1.1553 -0.7257,-2.2805 -1.7812,-2.75 l -37,-16.34381 c -0.4264,-0.1838 -0.869,-0.2562 -1.2813,-0.25 z m 0.062,6.25 33.9062,15.00001 c -0.2891,20.71168 -4.8616,33.87255 -11.3124,42.99995 -6.2645,8.8635 -14.3908,14.1848 -22.5938,19.1875 -8.2027,-5.0027 -16.3615,-10.3241 -22.624996,-19.1875 -6.45,-9.1273 -10.9922,-22.28817 -11.2812,-42.99995 l 33.906196,-15.00001 z m 0,17.74999 c -2.1987,0 -3.9831,1.7742 -4,3.9688 0.3605,7.1882 0.7306,14.5701 1,21.03117 0,1.6568 1.3431,3 3,3 1.6569,0 3,-1.3432 3,-3 0.2584,-6.96967 0.6536,-14.00877 1,-20.99997 0,-2.2091 -1.7909,-4 -4,-4 z m 0,29.99997 c -2.2091,0 -4,1.7909 -4,4 0,2.2091 1.7909,4 4,4 2.2091,0 4,-1.7909 4,-4 0,-2.2091 -1.7909,-4 -4,-4 z" fill="#000000" fill-opacity="1" fill-rule="nonzero" stroke="none" marker="none" visibility="visible" display="inline" overflow="visible"/></g><text x="0" y="115" fill="#000000" font-size="5px" font-weight="bold" font-family="'Helvetica Neue', Helvetica, Arial-Unicode, Arial, Sans-serif">Created by arjuazka</text><text x="0" y="120" fill="#000000" font-size="5px" font-weight="bold" font-family="'Helvetica Neue', Helvetica, Arial-Unicode, Arial, Sans-serif">from the Noun Project</text></svg>