<?xml version="1.0" encoding="utf-8"?>
<!-- Generator: Adobe Illustrator 16.0.0, SVG Export Plug-In . SVG Version: 6.00 Build 0)  -->
<!DOCTYPE svg PUBLIC "-//W3C//DTD SVG 1.1//EN" "http://www.w3.org/Graphics/SVG/1.1/DTD/svg11.dtd">
<svg version="1.1" id="Layer_1" xmlns="http://www.w3.org/2000/svg" xmlns:xlink="http://www.w3.org/1999/xlink" x="0px" y="0px"
	 width="500px" height="500px" viewBox="0 0 500 500" enable-background="new 0 0 500 500" xml:space="preserve">
<g>
	<circle cx="154" cy="102.4" r="7.2"/>
	<circle cx="174.4" cy="102.4" r="7.2"/>
	<circle cx="134" cy="102.4" r="7.2"/>
	<path d="M381.6,66h-266c-10.4,0-18.8,10.4-18.8,23.2v229.2c0,12.8,8.4,23.199,18.8,23.199h266C392,341.6,400.4,331.2,400.4,318.4
		V89.2C400.4,76.4,392,66,381.6,66z M391.6,135.6v181.2c0,7.2-4.399,13.2-10.399,13.2H116c-5.6,0-10.4-6-10.4-13.2V135.6H391.6z
		 M391.6,92.4v31.2h-286V92.4c0-8.4,4.4-15.2,10.4-15.2h265.2C386.8,77.2,391.6,84.4,391.6,92.4z"/>
	<path d="M177.6,222c0,1.2,0.4,2.8,1.6,3.6c1.2,1.2,2.4,1.6,3.6,1.6c1.2,0,2.4-0.4,3.6-1.6l5.6-5.6l5.6,5.6c1.2,1.2,2.4,1.6,3.6,1.6
		c1.2,0,2.4-0.4,3.6-1.6c0.8-0.8,1.6-2.4,1.6-3.6s-0.4-2.8-1.6-3.6l-5.2-5.6l6-6c2-2,2-5.2,0-7.2s-5.6-2-7.2,0l-5.6,5.6l-5.6-5.6
		c-2-2-5.6-2-7.2,0c-2,2-2,5.2,0,7.2l5.6,5.6L180,218C178,219.2,177.6,220.4,177.6,222z"/>
	<path d="M291.6,222c0,1.2,0.4,2.8,1.601,3.6c1.2,1.2,2.399,1.6,3.6,1.6c0.8,0,2.4-0.4,3.601-1.6l5.6-5.6l5.6,5.6
		c1.2,1.2,2.4,1.6,3.601,1.6s2.399-0.4,3.6-1.6c2-2,2-5.2,0-7.2l-5.6-5.6l5.6-5.6c2-2,2-5.2,0-7.2c-0.8-0.8-2.399-1.6-3.6-1.6l0,0
		c-1.2,0-2.8,0.4-3.601,1.6l-5.6,5.2l-5.6-5.6c-0.801-0.8-2.4-1.6-3.601-1.6l0,0c-1.2,0-2.8,0.4-3.6,1.6
		c-0.8,0.8-1.601,2.4-1.601,3.6c0,1.2,0.4,2.8,1.601,3.6l5.6,5.6l-5.6,5.6C292,219.2,291.6,220.4,291.6,222z"/>
	<path d="M200,269.6c0,3.2,2.4,4.801,4.8,4.801h54.4c-0.8,10.8,2,19.199,8.399,23.6c2.4,1.6,5.601,2.4,8.4,2.4
		c3.6,0,6.4-0.801,8.8-2.801c7.2-5.199,9.601-16,6.4-28.399c0-0.8-0.4-1.601-0.8-2c-1.2-1.601-2.4-2.4-4.4-2.4h-81.2
		C202,264.8,200,266.8,200,269.6z M269.6,274.4H282.4c1.199,6.8,0,12.399-3.601,14.8c-1.6,1.2-4,1.6-5.6,0.399
		C270,287.2,268.4,281.6,269.6,274.4z"/>
</g>
</svg>
