<svg xmlns="http://www.w3.org/2000/svg" xmlns:xlink="http://www.w3.org/1999/xlink" version="1.1" x="0px" y="0px" viewBox="0 0 100 125" enable-background="new 0 0 100 100" xml:space="preserve"><path d="M90.909,15.699H78.32V5h-9.439v6.294h3.146v9.44h-3.146v-5.035h-14.16V5h-9.44v6.294h3.146v9.44H45.28v-5.035H31.119V5  h-9.44v6.294h3.147v9.44h-3.147v-5.035H9.091c-1.042,0-1.888,0.846-1.888,1.889v75.524C7.203,94.154,8.048,95,9.091,95h81.818  c1.042,0,1.888-0.846,1.888-1.888V17.588C92.797,16.545,91.951,15.699,90.909,15.699z M89.021,91.225H10.979V32.063h78.042V91.225z"/><path d="M34.117,49.732h11.912c0.183,0,0.331-0.148,0.331-0.331V37.489c0-0.182-0.148-0.331-0.331-0.331H34.117  c-0.182,0-0.33,0.149-0.33,0.331v11.912C33.787,49.584,33.936,49.732,34.117,49.732z"/><path d="M53.971,49.732h11.912c0.182,0,0.33-0.148,0.33-0.331V37.489c0-0.182-0.148-0.331-0.33-0.331H53.971  c-0.183,0-0.33,0.149-0.33,0.331v11.912C53.641,49.584,53.788,49.732,53.971,49.732z"/><path d="M73.823,49.732h11.911c0.184,0,0.332-0.148,0.332-0.331V37.489c0-0.182-0.148-0.331-0.332-0.331H73.823  c-0.183,0-0.331,0.149-0.331,0.331v11.912C73.492,49.584,73.643,49.732,73.823,49.732z"/><path d="M14.265,67.932h11.912c0.182,0,0.331-0.148,0.331-0.332V55.688c0-0.183-0.149-0.33-0.331-0.33H14.265  c-0.183,0-0.331,0.147-0.331,0.33V67.6C13.934,67.782,14.082,67.932,14.265,67.932z"/><path d="M34.117,67.932h11.912c0.183,0,0.331-0.148,0.331-0.332V55.688c0-0.183-0.148-0.33-0.331-0.33H34.117  c-0.182,0-0.33,0.147-0.33,0.33V67.6C33.787,67.782,33.936,67.932,34.117,67.932z"/><path d="M53.971,67.932h11.912c0.182,0,0.33-0.148,0.33-0.332V55.688c0-0.183-0.148-0.33-0.33-0.33H53.971  c-0.183,0-0.33,0.147-0.33,0.33V67.6C53.641,67.782,53.788,67.932,53.971,67.932z"/><path d="M73.823,67.932h11.911c0.184,0,0.332-0.148,0.332-0.332V55.688c0-0.183-0.148-0.33-0.332-0.33H73.823  c-0.183,0-0.331,0.147-0.331,0.33V67.6C73.492,67.782,73.643,67.932,73.823,67.932z"/><path d="M14.265,86.129h11.912c0.182,0,0.331-0.148,0.331-0.33V73.887c0-0.183-0.149-0.33-0.331-0.33H14.265  c-0.183,0-0.331,0.147-0.331,0.33v11.912C13.934,85.98,14.082,86.129,14.265,86.129z"/><path d="M34.117,86.129h11.912c0.183,0,0.331-0.148,0.331-0.33V73.887c0-0.183-0.148-0.33-0.331-0.33H34.117  c-0.182,0-0.33,0.147-0.33,0.33v11.912C33.787,85.98,33.936,86.129,34.117,86.129z"/><path d="M53.971,86.129h11.912c0.182,0,0.33-0.148,0.33-0.33V73.887c0-0.183-0.148-0.33-0.33-0.33H53.971  c-0.183,0-0.33,0.147-0.33,0.33v11.912C53.641,85.98,53.788,86.129,53.971,86.129z"/><path d="M73.823,86.129h11.911c0.184,0,0.332-0.148,0.332-0.33V73.887c0-0.183-0.148-0.33-0.332-0.33H73.823  c-0.183,0-0.331,0.147-0.331,0.33v11.912C73.492,85.98,73.643,86.129,73.823,86.129z"/><text x="0" y="115" fill="#000000" font-size="5px" font-weight="bold" font-family="'Helvetica Neue', Helvetica, Arial-Unicode, Arial, Sans-serif">Created by David</text><text x="0" y="120" fill="#000000" font-size="5px" font-weight="bold" font-family="'Helvetica Neue', Helvetica, Arial-Unicode, Arial, Sans-serif">from the Noun Project</text></svg>