<svg xmlns="http://www.w3.org/2000/svg" xmlns:xlink="http://www.w3.org/1999/xlink" version="1.1" x="0px" y="0px" viewBox="0 0 1000 1250" enable-background="new 0 0 1000 1000" xml:space="preserve"><path d="M929.3,526.2c-46.5-23-104.2-6.9-129.3,35.7c-6.2,10.6-9.9,22.1-11,33.5l-190.3-94.2l189.1-97.6  c1.7,10.2,5.3,20.4,11.2,29.8c25.6,42.3,83.9,57.5,129.8,33.7c46-23.6,62.4-77.2,36.6-119.6c-19-31.2-55.6-47.4-91.9-44.5  c21.8-26.9,25.8-64.1,6.8-95.3c-25.8-42.4-83.9-57.5-129.9-33.7c-45.9,23.8-62.2,77.2-36.5,119.6c8,13.3,19.3,23.8,32.3,31.4  L499.5,452L250.7,328.9c12.9-7.9,24-18.5,31.8-32c24.9-42.7,7.6-95.9-38.9-119c-46.3-23-104.1-7-129.2,35.8  c-18.4,31.4-13.8,68.6,8.5,95.2c-36.3-2.5-72.6,14.5-91,46c-25,42.6-7.6,95.9,38.8,119c46.5,22.9,104.2,7,129.1-35.8  c5.7-9.6,9.1-19.6,10.5-29.8l190.9,94.6L212.8,600c-1.4-11.4-5.3-22.7-11.7-33.4c-25.6-42.2-83.7-57.3-129.8-33.7  c-46,23.8-62.4,77.2-36.6,119.6c19,31.2,55.6,47.6,91.9,44.5c-21.8,26.9-25.8,64.3-6.8,95.3c25.8,42.3,83.9,57.5,129.9,33.7  c45.9-23.6,62.4-77.2,36.5-119.4c-7.3-12.1-17.3-21.9-28.9-29.3l243.2-125.4l245.6,121.6c-11.6,7.6-21.5,17.6-28.6,29.8  C692.6,745.9,710,799,756.4,822c46.5,23,104.3,7,129.2-35.7c18.5-31.5,13.8-68.6-8.5-95.2c36.3,2.3,72.6-14.5,91-46  C993.1,602.3,975.6,549.2,929.3,526.2L929.3,526.2z M929.3,526.2"/><text x="0" y="1015" fill="#000000" font-size="5px" font-weight="bold" font-family="'Helvetica Neue', Helvetica, Arial-Unicode, Arial, Sans-serif">Created by Alvaro Cabrera</text><text x="0" y="1020" fill="#000000" font-size="5px" font-weight="bold" font-family="'Helvetica Neue', Helvetica, Arial-Unicode, Arial, Sans-serif">from the Noun Project</text></svg>