<svg xmlns:dc="http://purl.org/dc/elements/1.1/" xmlns:cc="http://creativecommons.org/ns#" xmlns:rdf="http://www.w3.org/1999/02/22-rdf-syntax-ns#" xmlns:svg="http://www.w3.org/2000/svg" xmlns="http://www.w3.org/2000/svg" xmlns:sodipodi="http://sodipodi.sourceforge.net/DTD/sodipodi-0.dtd" xmlns:inkscape="http://www.inkscape.org/namespaces/inkscape" version="1.1" x="0px" y="0px" viewBox="0 0 100 125"><g transform="translate(0,-952.36218)"><path d="m 50,956.36217 c -16.03141,0 -29,12.96859 -29,29 l 0,11.00003 -2,0 c -6.61341,0 -12,5.3866 -12,12 l 0,8 c 0,6.6134 5.38659,12 12,12 l 10,0 c 1.04717,-10e-5 1.9999,-0.9528 2,-2 l 0,-28 c -10e-5,-1.0472 -0.95283,-1.9999 -2,-2 l -4,0 0,-11.00003 c 0,-13.88459 11.11541,-25 25,-25 13.88459,0 25,11.11541 25,25 l 0,11.00003 -4,0 c -1.14507,0.021 -1.97542,1.099 -2,2 l 0,28 c 1e-4,1.0472 0.95283,1.9999 2,2 l 3.8125,0 c -0.47033,2.5291 -1.87062,4.8704 -4.40625,6.8125 -2.9296,2.2438 -7.45615,3.9019 -13.71875,4.1562 -0.88217,-2.8577 -3.55481,-4.9687 -6.6875,-4.9687 -3.8423,0 -7,3.1577 -7,7 0,3.8423 3.1577,7 7,7 3.16575,0 5.86571,-2.1273 6.71875,-5.0313 6.95227,-0.2634 12.32973,-2.117 16.09375,-5 3.46642,-2.655 5.49876,-6.2025 6.03125,-9.9687 l 2.15625,0 c 6.61341,0 12,-5.3866 12,-12 l 0,-8 c 0,-6.6134 -5.38659,-12 -12,-12 l -2,0 0,-11.00003 c 0,-16.03141 -12.96859,-29 -29,-29 z" style="text-indent:0;text-transform:none;direction:ltr;block-progression:tb;baseline-shift:baseline;color:#000000;enable-background:accumulate;" fill="#000000" fill-opacity="1" stroke="none" marker="none" visibility="visible" display="inline" overflow="visible"/></g><text x="0" y="115" fill="#000000" font-size="5px" font-weight="bold" font-family="'Helvetica Neue', Helvetica, Arial-Unicode, Arial, Sans-serif">Created by Three Six Five</text><text x="0" y="120" fill="#000000" font-size="5px" font-weight="bold" font-family="'Helvetica Neue', Helvetica, Arial-Unicode, Arial, Sans-serif">from the Noun Project</text></svg>