<svg xmlns:dc="http://purl.org/dc/elements/1.1/" xmlns:cc="http://creativecommons.org/ns#" xmlns:rdf="http://www.w3.org/1999/02/22-rdf-syntax-ns#" xmlns:svg="http://www.w3.org/2000/svg" xmlns="http://www.w3.org/2000/svg" xmlns:sodipodi="http://sodipodi.sourceforge.net/DTD/sodipodi-0.dtd" xmlns:inkscape="http://www.inkscape.org/namespaces/inkscape" version="1.1" x="0px" y="0px" viewBox="0 0 100 125"><g transform="translate(0,-952.36218)"><path style="text-indent:0;text-transform:none;direction:ltr;block-progression:tb;baseline-shift:baseline;color:#000000;enable-background:accumulate;" d="m 48.62305,973.89525 -19.000021,17.99931 c -0.82335,0.82928 -0.79807,2.06718 -0.0781,2.82798 0.71994,0.7609 2.06727,0.7981 2.82812,0.078 l 15.625001,-14.78064 0,49.3423 c 0,1.1045 0.8954,1.9999 2,1.9999 1.1046,0 2,-0.8954 2,-1.9999 l 0,-49.3423 15.625,14.78064 c 0.7609,0.72 2.1009,0.6758 2.8281,-0.078 0.7879,-0.8168 0.6828,-2.10806 -0.078,-2.82798 l -19,-17.99931 c -0.5528,-0.60965 -1.9554,-0.8051 -2.75,0 z" fill="#000000" fill-opacity="1" stroke="none" marker="none" visibility="visible" display="inline" overflow="visible"/></g><text x="0" y="115" fill="#000000" font-size="5px" font-weight="bold" font-family="'Helvetica Neue', Helvetica, Arial-Unicode, Arial, Sans-serif">Created by Aya Sofya</text><text x="0" y="120" fill="#000000" font-size="5px" font-weight="bold" font-family="'Helvetica Neue', Helvetica, Arial-Unicode, Arial, Sans-serif">from the Noun Project</text></svg>