<svg xmlns:dc="http://purl.org/dc/elements/1.1/" xmlns:cc="http://creativecommons.org/ns#" xmlns:rdf="http://www.w3.org/1999/02/22-rdf-syntax-ns#" xmlns:svg="http://www.w3.org/2000/svg" xmlns="http://www.w3.org/2000/svg" xmlns:sodipodi="http://sodipodi.sourceforge.net/DTD/sodipodi-0.dtd" xmlns:inkscape="http://www.inkscape.org/namespaces/inkscape" version="1.1" x="0px" y="0px" viewBox="0 0 100 125"><g transform="translate(0,-952.36218)"><path d="m 35.266383,958.16054 a 2.0001998,2.0001998 0 0 1 1.37498,0.68751 l 14.875016,17.24998 a 2.0049661,2.0049661 0 0 1 -3.031299,2.62503 l -11.375008,-13.18752 0,79.03116 a 2.0001998,2.0001998 0 1 1 -4.000004,0 l 0,-79.34364 -11.843681,12.68748 a 2.0012822,2.0012822 0 1 1 -2.937508,-2.71874 l 15.312508,-16.40626 a 2.0001998,2.0001998 0 0 1 1.437484,-0.625 2.0001998,2.0001998 0 0 1 0.187512,0 z" style="text-indent:0;text-transform:none;direction:ltr;block-progression:tb;baseline-shift:baseline;color:#000000;enable-background:accumulate;" fill="#000000" fill-opacity="1" fill-rule="evenodd" stroke="none" marker="none" visibility="visible" display="inline" overflow="visible"/><path d="m 64.922658,958.12929 a 2.0001998,2.0001998 0 0 1 1.968732,2.03127 l 0,79.34364 11.843681,-12.6875 a 2.0013401,2.0013401 0 0 1 2.937614,2.7188 l -15.343795,16.4062 a 2.0001998,2.0001998 0 0 1 -2.968831,-0.062 l -14.874979,-17.25 a 2.0001998,2.0001998 0 0 1 1.499988,-3.3437 2.0001998,2.0001998 0 0 1 1.531311,0.7187 l 11.375007,13.1875 0,-79.03114 a 2.0001998,2.0001998 0 0 1 2.031272,-2.03127 z" style="text-indent:0;text-transform:none;direction:ltr;block-progression:tb;baseline-shift:baseline;color:#000000;enable-background:accumulate;" fill="#000000" fill-opacity="1" fill-rule="evenodd" stroke="none" marker="none" visibility="visible" display="inline" overflow="visible"/></g><text x="0" y="115" fill="#000000" font-size="5px" font-weight="bold" font-family="'Helvetica Neue', Helvetica, Arial-Unicode, Arial, Sans-serif">Created by Royyan Razka</text><text x="0" y="120" fill="#000000" font-size="5px" font-weight="bold" font-family="'Helvetica Neue', Helvetica, Arial-Unicode, Arial, Sans-serif">from the Noun Project</text></svg>