<svg xmlns="http://www.w3.org/2000/svg" xmlns:xlink="http://www.w3.org/1999/xlink" version="1.1" x="0px" y="0px" viewBox="0 0 20.929 38.75" style="enable-background:new 0 0 20.929 31;" xml:space="preserve"><g><path d="M16,14.449v-0.074c3-1.013,4.094-3.041,4.094-5.215c0-2.213-1.197-3.877-2.9-4.783C16.252,3.819,15.257,3.47,14,3.261V1   c0-0.552-0.447-1-1-1h-1c-0.553,0-1,0.447-1,1v2.013C10.684,3.006,10.363,3,10.021,3C9.407,3,8.71,3,8,3V1c0-0.552-0.447-1-1-1H6   C5.447,0,5,0.447,5,1v2C4.742,3,2.384,3,1,3C0.448,3,0,3.448,0,4v1c0,0.552,0.447,1,1,1h2v19H1c-0.552,0-1,0.447-1,1v1.001   C0,27.553,0.447,28,1,28c1.383,0,3.741,0,4,0v2c0,0.553,0.447,1,1,1H7c0.552,0,1-0.447,1-1v-2c0.29,0,0.578,0,0.86,0   c0.765,0,1.466-0.031,2.14-0.076V30c0,0.553,0.447,1,1,1h1c0.553,0,1-0.447,1-1v-2.469c1.978-0.411,3.431-1.065,4.462-1.888   c1.522-1.231,2.467-2.97,2.467-5.179C20.929,17.31,19,15.211,16,14.449z M8,7.167c1-0.074,1.334-0.146,2.531-0.146   c2.5,0,4,1.049,4,2.896c0,1.814-1.469,3.082-4.364,3.082H8V7.167z M10.314,23.761c-0.941,0-1.314,0-2.314-0.071V17h2.237   c2.755,0,4.875,0.879,4.875,3.344C15.112,22.916,12.814,23.761,10.314,23.761z"/></g><text x="0" y="46" fill="#000000" font-size="5px" font-weight="bold" font-family="'Helvetica Neue', Helvetica, Arial-Unicode, Arial, Sans-serif">Created by Yo! Baba</text><text x="0" y="51" fill="#000000" font-size="5px" font-weight="bold" font-family="'Helvetica Neue', Helvetica, Arial-Unicode, Arial, Sans-serif">from the Noun Project</text></svg>