<svg xmlns="http://www.w3.org/2000/svg" viewBox="0 0 24 30" x="0px" y="0px"><path d="M154,6.49816335 L154,7.59970959 C152.219162,8.51006509 151,10.3626573 151,12.5 C151,15.5375661 153.462434,18 156.5,18 C159.537566,18 162,15.5375661 162,12.5 C162,10.3626573 160.780838,8.51006509 159,7.59970959 L159,6.49816335 C161.348952,7.47772297 163,9.79605001 163,12.5 C163,16.0898509 160.089851,19 156.5,19 C152.910149,19 150,16.0898509 150,12.5 C150,9.79605001 151.651048,7.47772297 154,6.49816335 Z M156,5 L157,5 L157,11 L156,11 L156,5 Z" transform="translate(-144)"/><text x="0" y="39" fill="#000000" font-size="5px" font-weight="bold" font-family="'Helvetica Neue', Helvetica, Arial-Unicode, Arial, Sans-serif">Created by Eugene C.</text><text x="0" y="44" fill="#000000" font-size="5px" font-weight="bold" font-family="'Helvetica Neue', Helvetica, Arial-Unicode, Arial, Sans-serif">from the Noun Project</text></svg>