<svg xmlns="http://www.w3.org/2000/svg" data-name="Layer 1" viewBox="0 0 100 125" x="0px" y="0px"><title>Artboard 5</title><path d="M10.87,35.34,21.41,11.91A5.78,5.78,0,0,1,26.68,8.5H74.54a5.78,5.78,0,0,1,5.27,3.41L90.35,35.34c3,6.66-1.39,14.55-8.69,15l-.77,0A11.19,11.19,0,0,1,70.78,44a11.18,11.18,0,0,1-20.17.17A11.18,11.18,0,0,1,30.44,44a11.19,11.19,0,0,1-10.12,6.44l-.77,0C12.26,49.89,7.87,42,10.87,35.34Zm40.9,54.24V79.42a1.93,1.93,0,0,0-1.93-1.93H44.91A1.93,1.93,0,0,0,43,79.42V89.58a1.93,1.93,0,0,0,1.93,1.93h4.93A1.93,1.93,0,0,0,51.77,89.58ZM65.37,91.5a1.93,1.93,0,0,0,1.93-1.93V69.4a1.93,1.93,0,0,0-1.93-1.93H60.45a1.93,1.93,0,0,0-1.93,1.93V89.58a1.93,1.93,0,0,0,1.93,1.93ZM76,57.43a1.93,1.93,0,0,0-1.93,1.93V89.58A1.93,1.93,0,0,0,76,91.5h4.93a1.93,1.93,0,0,0,1.93-1.93V59.35a1.93,1.93,0,0,0-1.93-1.93ZM13.13,91.18H34.8a1.32,1.32,0,0,0,1.32-1.32V83.21a1.32,1.32,0,0,0-1.32-1.32H26.16V54.38a16.11,16.11,0,0,1-5.83,1.11q-.56,0-1.12,0a15.56,15.56,0,0,1-2.34-.34V81.89H13.13a4.65,4.65,0,0,0,0,9.29Z"/><text x="0" y="115" fill="#000000" font-size="5px" font-weight="bold" font-family="'Helvetica Neue', Helvetica, Arial-Unicode, Arial, Sans-serif">Created by Gregor Cresnar</text><text x="0" y="120" fill="#000000" font-size="5px" font-weight="bold" font-family="'Helvetica Neue', Helvetica, Arial-Unicode, Arial, Sans-serif">from the Noun Project</text></svg>