<svg xmlns="http://www.w3.org/2000/svg" xmlns:xlink="http://www.w3.org/1999/xlink" version="1.1" x="0px" y="0px" viewBox="0 0 100 125" style="enable-background:new 0 0 100 100;" xml:space="preserve"><g><path d="M67.4,32.6c-0.8-0.8-2-0.8-2.8,0L50,47.2L35.4,32.6c-0.8-0.8-2-0.8-2.8,0c-0.8,0.8-0.8,2,0,2.8L47.2,50L32.6,64.6   c-0.8,0.8-0.8,2,0,2.8C33,67.8,33.5,68,34,68s1-0.2,1.4-0.6L50,52.8l14.6,14.6C65,67.8,65.5,68,66,68s1-0.2,1.4-0.6   c0.8-0.8,0.8-2,0-2.8L52.8,50l14.6-14.6C68.2,34.6,68.2,33.4,67.4,32.6z"/><path d="M50,8C26.8,8,8,26.8,8,50s18.8,42,42,42s42-18.8,42-42S73.2,8,50,8z M50,88c-21,0-38-17-38-38s17-38,38-38s38,17,38,38   S71,88,50,88z"/></g><text x="0" y="115" fill="#000000" font-size="5px" font-weight="bold" font-family="'Helvetica Neue', Helvetica, Arial-Unicode, Arial, Sans-serif">Created by Icon Depot</text><text x="0" y="120" fill="#000000" font-size="5px" font-weight="bold" font-family="'Helvetica Neue', Helvetica, Arial-Unicode, Arial, Sans-serif">from the Noun Project</text></svg>