<svg xmlns="http://www.w3.org/2000/svg" xmlns:xlink="http://www.w3.org/1999/xlink" version="1.1" x="0px" y="0px" viewBox="0 0 100 125" enable-background="new 0 0 100 100" xml:space="preserve"><path d="M70.5,46.75H67v-10c0-9.098-7.402-16.5-16.5-16.5h-1c-8.199,0-15.057,5.874-16.306,13.966  c-0.295,1.91,1.015,3.698,2.925,3.993c1.915,0.302,3.699-1.016,3.993-2.925c0.707-4.58,4.743-8.034,9.388-8.034h1  c5.238,0,9.5,4.262,9.5,9.5v10H29.5c-1.657,0-3,1.343-3,3v27c0,1.657,1.343,3,3,3h41c1.657,0,3-1.343,3-3v-27  C73.5,48.093,72.157,46.75,70.5,46.75z M53,66.25c0,1.657-1.343,3-3,3s-3-1.343-3-3v-6c0-1.657,1.343-3,3-3s3,1.343,3,3V66.25z"/><text x="0" y="115" fill="#000000" font-size="5px" font-weight="bold" font-family="'Helvetica Neue', Helvetica, Arial-Unicode, Arial, Sans-serif">Created by Sophie Haskind</text><text x="0" y="120" fill="#000000" font-size="5px" font-weight="bold" font-family="'Helvetica Neue', Helvetica, Arial-Unicode, Arial, Sans-serif">from the Noun Project</text></svg>