<svg xmlns="http://www.w3.org/2000/svg" xmlns:xlink="http://www.w3.org/1999/xlink" version="1.1" x="0px" y="0px" viewBox="0 0 96 120" style="enable-background:new 0 0 96 96;" xml:space="preserve"><g><path d="M48.1,49.3c11,0,20-9,20-20.1c0-11-9-19.9-20-19.9c-11,0-20,9-20,20.1C28.1,40.3,37,49.3,48.1,49.3z"/><path d="M66.7,49.2L64.9,49l-1.2,1.2c-4.2,4.1-9.7,6.3-15.7,6.3c-5.8,0-11.4-2.2-15.6-6.3L31.2,49l-1.7,0.2   C15.5,50.2,4.6,62,4.6,75.9v10.8h86.8V76C91.5,62,80.7,50.3,66.7,49.2z"/></g><text x="0" y="111" fill="#000000" font-size="5px" font-weight="bold" font-family="'Helvetica Neue', Helvetica, Arial-Unicode, Arial, Sans-serif">Created by juli</text><text x="0" y="116" fill="#000000" font-size="5px" font-weight="bold" font-family="'Helvetica Neue', Helvetica, Arial-Unicode, Arial, Sans-serif">from the Noun Project</text></svg>